<?xml version="1.0" encoding="UTF-8" standalone="no"?>
<!DOCTYPE svg PUBLIC "-//W3C//DTD SVG 1.1//EN"
 "http://www.w3.org/Graphics/SVG/1.1/DTD/svg11.dtd">
<!-- Generated by graphviz version 2.47.0 (20210316.0004)
 -->
<!-- Title: dependencies Pages: 1 -->
<svg width="1190pt" height="211pt"
 viewBox="0.00 0.00 1190.00 211.00" xmlns="http://www.w3.org/2000/svg" xmlns:xlink="http://www.w3.org/1999/xlink">
<g id="graph0" class="graph" transform="scale(1 1) rotate(0) translate(4 207)">
<title>dependencies</title>
<polygon fill="white" stroke="transparent" points="-4,4 -4,-207 1186,-207 1186,4 -4,4"/>
<text text-anchor="start" x="570.01" y="-42.4" font-family="Times-12" font-weight="bold" font-size="14.00">Legend</text>
<polygon fill="#ffffb3" stroke="transparent" points="357,-10 357,-30 377,-30 377,-10 357,-10"/>
<text text-anchor="start" x="380.63" y="-15.4" font-family="Times-12" font-size="14.00"> &#160;Declarations</text>
<polygon fill="#8dd3c7" stroke="transparent" points="470,-10 470,-30 490,-30 490,-10 470,-10"/>
<text text-anchor="start" x="493.73" y="-15.4" font-family="Times-12" font-size="14.00"> &#160;Module</text>
<polygon fill="#80b1d3" stroke="transparent" points="556,-10 556,-30 576,-30 576,-10 556,-10"/>
<text text-anchor="start" x="579.78" y="-15.4" font-family="Times-12" font-size="14.00"> &#160;Bootstrap</text>
<polygon fill="#fdb462" stroke="transparent" points="653,-10 653,-30 673,-30 673,-10 653,-10"/>
<text text-anchor="start" x="676.67" y="-15.4" font-family="Times-12" font-size="14.00"> &#160;Providers</text>
<polygon fill="#fb8072" stroke="transparent" points="749,-10 749,-30 769,-30 769,-10 749,-10"/>
<text text-anchor="start" x="772.73" y="-15.4" font-family="Times-12" font-size="14.00"> &#160;Exports</text>
<g id="clust1" class="cluster">
<title>cluster_UserModule</title>
<polygon fill="none" stroke="black" stroke-dasharray="1,5" points="8,-70 8,-195 1174,-195 1174,-70 8,-70"/>
</g>
<g id="clust6" class="cluster">
<title>cluster_UserModule_providers</title>
<polygon fill="none" stroke="black" points="150,-78 150,-130 1166,-130 1166,-78 150,-78"/>
</g>
<g id="clust3" class="cluster">
<title>cluster_UserModule_imports</title>
<polygon fill="none" stroke="black" points="16,-78 16,-130 142,-130 142,-78 16,-78"/>
</g>
<!-- DatabaseModule -->
<g id="node1" class="node">
<title>DatabaseModule</title>
<polygon fill="#8dd3c7" stroke="black" points="134.35,-122 131.35,-126 110.35,-126 107.35,-122 23.65,-122 23.65,-86 134.35,-86 134.35,-122"/>
<text text-anchor="middle" x="79" y="-99.8" font-family="Times,serif" font-size="14.00">DatabaseModule</text>
</g>
<!-- UserModule -->
<g id="node2" class="node">
<title>UserModule</title>
<polygon fill="#8dd3c7" stroke="black" points="607.98,-187 604.98,-191 583.98,-191 580.98,-187 522.02,-187 522.02,-151 607.98,-151 607.98,-187"/>
<text text-anchor="middle" x="565" y="-164.8" font-family="Times,serif" font-size="14.00">UserModule</text>
</g>
<!-- DatabaseModule&#45;&gt;UserModule -->
<g id="edge1" class="edge">
<title>DatabaseModule&#45;&gt;UserModule</title>
<path fill="none" stroke="black" d="M79,-122.28C79,-143.32 79,-175 79,-175 79,-175 511.87,-175 511.87,-175"/>
<polygon fill="black" stroke="black" points="511.87,-178.5 521.87,-175 511.87,-171.5 511.87,-178.5"/>
</g>
<!-- CreateUserUseCase -->
<g id="node3" class="node">
<title>CreateUserUseCase</title>
<ellipse fill="#fdb462" stroke="black" cx="1070" cy="-104" rx="88.49" ry="18"/>
<text text-anchor="middle" x="1070" y="-99.8" font-family="Times,serif" font-size="14.00">CreateUserUseCase</text>
</g>
<!-- CreateUserUseCase&#45;&gt;UserModule -->
<g id="edge2" class="edge">
<title>CreateUserUseCase&#45;&gt;UserModule</title>
<path fill="none" stroke="black" d="M1070,-122.28C1070,-143.32 1070,-175 1070,-175 1070,-175 618.06,-175 618.06,-175"/>
<polygon fill="black" stroke="black" points="618.06,-171.5 608.06,-175 618.06,-178.5 618.06,-171.5"/>
</g>
<!-- DeleteUserUseCase -->
<g id="node4" class="node">
<title>DeleteUserUseCase</title>
<ellipse fill="#fdb462" stroke="black" cx="876" cy="-104" rx="88.49" ry="18"/>
<text text-anchor="middle" x="876" y="-99.8" font-family="Times,serif" font-size="14.00">DeleteUserUseCase</text>
</g>
<!-- DeleteUserUseCase&#45;&gt;UserModule -->
<g id="edge3" class="edge">
<title>DeleteUserUseCase&#45;&gt;UserModule</title>
<path fill="none" stroke="black" d="M876,-122.02C876,-139.37 876,-163 876,-163 876,-163 618.24,-163 618.24,-163"/>
<polygon fill="black" stroke="black" points="618.24,-159.5 608.24,-163 618.24,-166.5 618.24,-159.5"/>
</g>
<!-- FindAllUsersUseCase -->
<g id="node5" class="node">
<title>FindAllUsersUseCase</title>
<ellipse fill="#fdb462" stroke="black" cx="673" cy="-104" rx="96.7" ry="18"/>
<text text-anchor="middle" x="673" y="-99.8" font-family="Times,serif" font-size="14.00">FindAllUsersUseCase</text>
</g>
<!-- FindAllUsersUseCase&#45;&gt;UserModule -->
<g id="edge4" class="edge">
<title>FindAllUsersUseCase&#45;&gt;UserModule</title>
<path fill="none" stroke="black" d="M592.07,-114.16C592.07,-114.16 592.07,-140.81 592.07,-140.81"/>
<polygon fill="black" stroke="black" points="588.57,-140.81 592.07,-150.81 595.57,-140.81 588.57,-140.81"/>
</g>
<!-- FindUserByIdUseCase -->
<g id="node6" class="node">
<title>FindUserByIdUseCase</title>
<ellipse fill="#fdb462" stroke="black" cx="458" cy="-104" rx="100.14" ry="18"/>
<text text-anchor="middle" x="458" y="-99.8" font-family="Times,serif" font-size="14.00">FindUserByIdUseCase</text>
</g>
<!-- FindUserByIdUseCase&#45;&gt;UserModule -->
<g id="edge5" class="edge">
<title>FindUserByIdUseCase&#45;&gt;UserModule</title>
<path fill="none" stroke="black" d="M540.04,-114.44C540.04,-114.44 540.04,-140.97 540.04,-140.97"/>
<polygon fill="black" stroke="black" points="536.54,-140.97 540.04,-150.97 543.54,-140.97 536.54,-140.97"/>
</g>
<!-- UpdateUserUseCase -->
<g id="node7" class="node">
<title>UpdateUserUseCase</title>
<ellipse fill="#fdb462" stroke="black" cx="249" cy="-104" rx="90.87" ry="18"/>
<text text-anchor="middle" x="249" y="-99.8" font-family="Times,serif" font-size="14.00">UpdateUserUseCase</text>
</g>
<!-- UpdateUserUseCase&#45;&gt;UserModule -->
<g id="edge6" class="edge">
<title>UpdateUserUseCase&#45;&gt;UserModule</title>
<path fill="none" stroke="black" d="M249,-122.02C249,-139.37 249,-163 249,-163 249,-163 511.72,-163 511.72,-163"/>
<polygon fill="black" stroke="black" points="511.72,-166.5 521.72,-163 511.72,-159.5 511.72,-166.5"/>
</g>
</g>
</svg>
