<?xml version="1.0" encoding="UTF-8" standalone="no"?>
<!DOCTYPE svg PUBLIC "-//W3C//DTD SVG 1.1//EN"
 "http://www.w3.org/Graphics/SVG/1.1/DTD/svg11.dtd">
<!-- Generated by graphviz version 2.47.0 (20210316.0004)
 -->
<!-- Title: dependencies Pages: 1 -->
<svg width="1179pt" height="211pt"
 viewBox="0.00 0.00 1179.00 211.00" xmlns="http://www.w3.org/2000/svg" xmlns:xlink="http://www.w3.org/1999/xlink">
<g id="graph0" class="graph" transform="scale(1 1) rotate(0) translate(4 207)">
<title>dependencies</title>
<polygon fill="white" stroke="transparent" points="-4,4 -4,-207 1175,-207 1175,4 -4,4"/>
<text text-anchor="start" x="564.51" y="-42.4" font-family="Times-12" font-weight="bold" font-size="14.00">Legend</text>
<polygon fill="#ffffb3" stroke="transparent" points="351.5,-10 351.5,-30 371.5,-30 371.5,-10 351.5,-10"/>
<text text-anchor="start" x="375.13" y="-15.4" font-family="Times-12" font-size="14.00"> &#160;Declarations</text>
<polygon fill="#8dd3c7" stroke="transparent" points="464.5,-10 464.5,-30 484.5,-30 484.5,-10 464.5,-10"/>
<text text-anchor="start" x="488.23" y="-15.4" font-family="Times-12" font-size="14.00"> &#160;Module</text>
<polygon fill="#80b1d3" stroke="transparent" points="550.5,-10 550.5,-30 570.5,-30 570.5,-10 550.5,-10"/>
<text text-anchor="start" x="574.28" y="-15.4" font-family="Times-12" font-size="14.00"> &#160;Bootstrap</text>
<polygon fill="#fdb462" stroke="transparent" points="647.5,-10 647.5,-30 667.5,-30 667.5,-10 647.5,-10"/>
<text text-anchor="start" x="671.17" y="-15.4" font-family="Times-12" font-size="14.00"> &#160;Providers</text>
<polygon fill="#fb8072" stroke="transparent" points="743.5,-10 743.5,-30 763.5,-30 763.5,-10 743.5,-10"/>
<text text-anchor="start" x="767.23" y="-15.4" font-family="Times-12" font-size="14.00"> &#160;Exports</text>
<g id="clust1" class="cluster">
<title>cluster_LessonsModule</title>
<polygon fill="none" stroke="black" stroke-dasharray="1,5" points="8,-70 8,-195 1163,-195 1163,-70 8,-70"/>
</g>
<g id="clust3" class="cluster">
<title>cluster_LessonsModule_imports</title>
<polygon fill="none" stroke="black" points="1029,-78 1029,-130 1155,-130 1155,-78 1029,-78"/>
</g>
<g id="clust6" class="cluster">
<title>cluster_LessonsModule_providers</title>
<polygon fill="none" stroke="black" points="16,-78 16,-130 1021,-130 1021,-78 16,-78"/>
</g>
<!-- DatabaseModule -->
<g id="node1" class="node">
<title>DatabaseModule</title>
<polygon fill="#8dd3c7" stroke="black" points="1147.35,-122 1144.35,-126 1123.35,-126 1120.35,-122 1036.65,-122 1036.65,-86 1147.35,-86 1147.35,-122"/>
<text text-anchor="middle" x="1092" y="-99.8" font-family="Times,serif" font-size="14.00">DatabaseModule</text>
</g>
<!-- LessonsModule -->
<g id="node2" class="node">
<title>LessonsModule</title>
<polygon fill="#8dd3c7" stroke="black" points="736.15,-187 733.15,-191 712.15,-191 709.15,-187 631.85,-187 631.85,-151 736.15,-151 736.15,-187"/>
<text text-anchor="middle" x="684" y="-164.8" font-family="Times,serif" font-size="14.00">LessonsModule</text>
</g>
<!-- DatabaseModule&#45;&gt;LessonsModule -->
<g id="edge1" class="edge">
<title>DatabaseModule&#45;&gt;LessonsModule</title>
<path fill="none" stroke="black" d="M1092,-122.28C1092,-143.32 1092,-175 1092,-175 1092,-175 746.5,-175 746.5,-175"/>
<polygon fill="black" stroke="black" points="746.5,-171.5 736.5,-175 746.5,-178.5 746.5,-171.5"/>
</g>
<!-- CreateLessonUseCase -->
<g id="node3" class="node">
<title>CreateLessonUseCase</title>
<ellipse fill="#fdb462" stroke="black" cx="916" cy="-104" rx="97.25" ry="18"/>
<text text-anchor="middle" x="916" y="-99.8" font-family="Times,serif" font-size="14.00">CreateLessonUseCase</text>
</g>
<!-- CreateLessonUseCase&#45;&gt;LessonsModule -->
<g id="edge2" class="edge">
<title>CreateLessonUseCase&#45;&gt;LessonsModule</title>
<path fill="none" stroke="black" d="M916,-122.02C916,-139.37 916,-163 916,-163 916,-163 746.35,-163 746.35,-163"/>
<polygon fill="black" stroke="black" points="746.35,-159.5 736.35,-163 746.35,-166.5 746.35,-159.5"/>
</g>
<!-- DeleteLessonByIdUseCase -->
<g id="node4" class="node">
<title>DeleteLessonByIdUseCase</title>
<ellipse fill="#fdb462" stroke="black" cx="684" cy="-104" rx="116.87" ry="18"/>
<text text-anchor="middle" x="684" y="-99.8" font-family="Times,serif" font-size="14.00">DeleteLessonByIdUseCase</text>
</g>
<!-- DeleteLessonByIdUseCase&#45;&gt;LessonsModule -->
<g id="edge3" class="edge">
<title>DeleteLessonByIdUseCase&#45;&gt;LessonsModule</title>
<path fill="none" stroke="black" d="M684,-122.11C684,-122.11 684,-140.99 684,-140.99"/>
<polygon fill="black" stroke="black" points="680.5,-140.99 684,-150.99 687.5,-140.99 680.5,-140.99"/>
</g>
<!-- FindAllLessonsByCourseUseCase -->
<g id="node5" class="node">
<title>FindAllLessonsByCourseUseCase</title>
<ellipse fill="#fdb462" stroke="black" cx="405" cy="-104" rx="144.7" ry="18"/>
<text text-anchor="middle" x="405" y="-99.8" font-family="Times,serif" font-size="14.00">FindAllLessonsByCourseUseCase</text>
</g>
<!-- FindAllLessonsByCourseUseCase&#45;&gt;LessonsModule -->
<g id="edge4" class="edge">
<title>FindAllLessonsByCourseUseCase&#45;&gt;LessonsModule</title>
<path fill="none" stroke="black" d="M405,-122.02C405,-139.37 405,-163 405,-163 405,-163 621.52,-163 621.52,-163"/>
<polygon fill="black" stroke="black" points="621.52,-166.5 631.52,-163 621.52,-159.5 621.52,-166.5"/>
</g>
<!-- FindLessonByIdUseCase -->
<g id="node6" class="node">
<title>FindLessonByIdUseCase</title>
<ellipse fill="#fdb462" stroke="black" cx="133" cy="-104" rx="109.39" ry="18"/>
<text text-anchor="middle" x="133" y="-99.8" font-family="Times,serif" font-size="14.00">FindLessonByIdUseCase</text>
</g>
<!-- FindLessonByIdUseCase&#45;&gt;LessonsModule -->
<g id="edge5" class="edge">
<title>FindLessonByIdUseCase&#45;&gt;LessonsModule</title>
<path fill="none" stroke="black" d="M133,-122.28C133,-143.32 133,-175 133,-175 133,-175 621.67,-175 621.67,-175"/>
<polygon fill="black" stroke="black" points="621.67,-178.5 631.67,-175 621.67,-171.5 621.67,-178.5"/>
</g>
</g>
</svg>
