<?xml version="1.0" encoding="UTF-8" standalone="no"?>
<!DOCTYPE svg PUBLIC "-//W3C//DTD SVG 1.1//EN"
 "http://www.w3.org/Graphics/SVG/1.1/DTD/svg11.dtd">
<!-- Generated by graphviz version 2.47.0 (20210316.0004)
 -->
<!-- Title: dependencies Pages: 1 -->
<svg width="870pt" height="284pt"
 viewBox="0.00 0.00 870.00 284.00" xmlns="http://www.w3.org/2000/svg" xmlns:xlink="http://www.w3.org/1999/xlink">
<g id="graph0" class="graph" transform="scale(1 1) rotate(0) translate(4 280)">
<title>dependencies</title>
<polygon fill="white" stroke="transparent" points="-4,4 -4,-280 866,-280 866,4 -4,4"/>
<text text-anchor="start" x="410.01" y="-42.4" font-family="Times-12" font-weight="bold" font-size="14.00">Legend</text>
<polygon fill="#ffffb3" stroke="transparent" points="197,-10 197,-30 217,-30 217,-10 197,-10"/>
<text text-anchor="start" x="220.63" y="-15.4" font-family="Times-12" font-size="14.00"> &#160;Declarations</text>
<polygon fill="#8dd3c7" stroke="transparent" points="310,-10 310,-30 330,-30 330,-10 310,-10"/>
<text text-anchor="start" x="333.73" y="-15.4" font-family="Times-12" font-size="14.00"> &#160;Module</text>
<polygon fill="#80b1d3" stroke="transparent" points="396,-10 396,-30 416,-30 416,-10 396,-10"/>
<text text-anchor="start" x="419.78" y="-15.4" font-family="Times-12" font-size="14.00"> &#160;Bootstrap</text>
<polygon fill="#fdb462" stroke="transparent" points="493,-10 493,-30 513,-30 513,-10 493,-10"/>
<text text-anchor="start" x="516.67" y="-15.4" font-family="Times-12" font-size="14.00"> &#160;Providers</text>
<polygon fill="#fb8072" stroke="transparent" points="589,-10 589,-30 609,-30 609,-10 589,-10"/>
<text text-anchor="start" x="612.73" y="-15.4" font-family="Times-12" font-size="14.00"> &#160;Exports</text>
<g id="clust1" class="cluster">
<title>cluster_DatabaseModule</title>
<polygon fill="none" stroke="black" stroke-dasharray="1,5" points="8,-70 8,-268 854,-268 854,-70 8,-70"/>
</g>
<g id="clust4" class="cluster">
<title>cluster_DatabaseModule_exports</title>
<polygon fill="none" stroke="black" points="149,-208 149,-260 666,-260 666,-208 149,-208"/>
</g>
<g id="clust6" class="cluster">
<title>cluster_DatabaseModule_providers</title>
<polygon fill="none" stroke="black" points="16,-78 16,-130 846,-130 846,-78 16,-78"/>
</g>
<!-- PrismaCourseRepository  -->
<g id="node1" class="node">
<title>PrismaCourseRepository </title>
<polygon fill="#fb8072" stroke="black" points="657.98,-252 498.02,-252 498.02,-216 657.98,-216 657.98,-252"/>
<text text-anchor="middle" x="578" y="-229.8" font-family="Times,serif" font-size="14.00">PrismaCourseRepository </text>
</g>
<!-- PrismaLessonRepository  -->
<g id="node2" class="node">
<title>PrismaLessonRepository </title>
<polygon fill="#fb8072" stroke="black" points="480.98,-252 321.02,-252 321.02,-216 480.98,-216 480.98,-252"/>
<text text-anchor="middle" x="401" y="-229.8" font-family="Times,serif" font-size="14.00">PrismaLessonRepository </text>
</g>
<!-- PrismaUserRepository  -->
<g id="node3" class="node">
<title>PrismaUserRepository </title>
<polygon fill="#fb8072" stroke="black" points="303.25,-252 156.75,-252 156.75,-216 303.25,-216 303.25,-252"/>
<text text-anchor="middle" x="230" y="-229.8" font-family="Times,serif" font-size="14.00">PrismaUserRepository </text>
</g>
<!-- DatabaseModule -->
<g id="node4" class="node">
<title>DatabaseModule</title>
<polygon fill="#8dd3c7" stroke="black" points="456.35,-187 453.35,-191 432.35,-191 429.35,-187 345.65,-187 345.65,-151 456.35,-151 456.35,-187"/>
<text text-anchor="middle" x="401" y="-164.8" font-family="Times,serif" font-size="14.00">DatabaseModule</text>
</g>
<!-- DatabaseModule&#45;&gt;PrismaCourseRepository  -->
<g id="edge1" class="edge">
<title>DatabaseModule&#45;&gt;PrismaCourseRepository </title>
<path fill="none" stroke="black" stroke-dasharray="5,2" d="M456.59,-175C499.44,-175 551.43,-175 551.43,-175 551.43,-175 551.43,-205.98 551.43,-205.98"/>
<polygon fill="black" stroke="black" points="547.93,-205.98 551.43,-215.98 554.93,-205.98 547.93,-205.98"/>
</g>
<!-- DatabaseModule&#45;&gt;PrismaLessonRepository  -->
<g id="edge2" class="edge">
<title>DatabaseModule&#45;&gt;PrismaLessonRepository </title>
<path fill="none" stroke="black" stroke-dasharray="5,2" d="M401,-187.11C401,-187.11 401,-205.99 401,-205.99"/>
<polygon fill="black" stroke="black" points="397.5,-205.99 401,-215.99 404.5,-205.99 397.5,-205.99"/>
</g>
<!-- DatabaseModule&#45;&gt;PrismaUserRepository  -->
<g id="edge3" class="edge">
<title>DatabaseModule&#45;&gt;PrismaUserRepository </title>
<path fill="none" stroke="black" stroke-dasharray="5,2" d="M345.34,-175C309.92,-175 270.66,-175 270.66,-175 270.66,-175 270.66,-205.98 270.66,-205.98"/>
<polygon fill="black" stroke="black" points="267.16,-205.98 270.66,-215.98 274.16,-205.98 267.16,-205.98"/>
</g>
<!-- PrismaCourseRepository -->
<g id="node5" class="node">
<title>PrismaCourseRepository</title>
<ellipse fill="#fdb462" stroke="black" cx="730" cy="-104" rx="107.68" ry="18"/>
<text text-anchor="middle" x="730" y="-99.8" font-family="Times,serif" font-size="14.00">PrismaCourseRepository</text>
</g>
<!-- PrismaCourseRepository&#45;&gt;DatabaseModule -->
<g id="edge4" class="edge">
<title>PrismaCourseRepository&#45;&gt;DatabaseModule</title>
<path fill="none" stroke="black" d="M640.07,-114.01C640.07,-130.84 640.07,-163 640.07,-163 640.07,-163 466.45,-163 466.45,-163"/>
<polygon fill="black" stroke="black" points="466.45,-159.5 456.45,-163 466.45,-166.5 466.45,-159.5"/>
</g>
<!-- PrismaLessonRepository -->
<g id="node6" class="node">
<title>PrismaLessonRepository</title>
<ellipse fill="#fdb462" stroke="black" cx="497" cy="-104" rx="107.68" ry="18"/>
<text text-anchor="middle" x="497" y="-99.8" font-family="Times,serif" font-size="14.00">PrismaLessonRepository</text>
</g>
<!-- PrismaLessonRepository&#45;&gt;DatabaseModule -->
<g id="edge5" class="edge">
<title>PrismaLessonRepository&#45;&gt;DatabaseModule</title>
<path fill="none" stroke="black" d="M422.92,-117.15C422.92,-117.15 422.92,-140.69 422.92,-140.69"/>
<polygon fill="black" stroke="black" points="419.42,-140.69 422.92,-150.69 426.42,-140.69 419.42,-140.69"/>
</g>
<!-- PrismaService -->
<g id="node7" class="node">
<title>PrismaService</title>
<ellipse fill="#fdb462" stroke="black" cx="305" cy="-104" rx="66.63" ry="18"/>
<text text-anchor="middle" x="305" y="-99.8" font-family="Times,serif" font-size="14.00">PrismaService</text>
</g>
<!-- PrismaService&#45;&gt;DatabaseModule -->
<g id="edge6" class="edge">
<title>PrismaService&#45;&gt;DatabaseModule</title>
<path fill="none" stroke="black" d="M358.69,-114.73C358.69,-114.73 358.69,-140.87 358.69,-140.87"/>
<polygon fill="black" stroke="black" points="355.19,-140.87 358.69,-150.87 362.19,-140.87 355.19,-140.87"/>
</g>
<!-- PrismaUserRepository -->
<g id="node8" class="node">
<title>PrismaUserRepository</title>
<ellipse fill="#fdb462" stroke="black" cx="122" cy="-104" rx="98.43" ry="18"/>
<text text-anchor="middle" x="122" y="-99.8" font-family="Times,serif" font-size="14.00">PrismaUserRepository</text>
</g>
<!-- PrismaUserRepository&#45;&gt;DatabaseModule -->
<g id="edge7" class="edge">
<title>PrismaUserRepository&#45;&gt;DatabaseModule</title>
<path fill="none" stroke="black" d="M188.67,-117.39C188.67,-134.8 188.67,-163 188.67,-163 188.67,-163 335.49,-163 335.49,-163"/>
<polygon fill="black" stroke="black" points="335.49,-166.5 345.49,-163 335.49,-159.5 335.49,-166.5"/>
</g>
</g>
</svg>
